<svg xmlns="http://www.w3.org/2000/svg" viewBox="0 0 820 520" role="img" aria-label="Donneur qui donne son sang">
  <defs>
    <linearGradient id="bg" x1="0" x2="1" y1="0" y2="1">
      <stop offset="0" stop-color="#fdecee" />
      <stop offset="1" stop-color="#ffffff" />
    </linearGradient>
  </defs>
  <rect width="820" height="520" rx="32" fill="url(#bg)" />

  <rect x="120" y="320" width="320" height="40" rx="20" fill="#e2e8f0" />
  <rect x="150" y="260" width="260" height="90" rx="22" fill="#ffffff" stroke="#f3b7c0" />
  <rect x="180" y="280" width="90" height="18" rx="9" fill="#fce9ec" />
  <rect x="180" y="305" width="200" height="12" rx="6" fill="#e2e8f0" />

  <circle cx="520" cy="190" r="70" fill="#fce9ec" />
  <rect x="430" y="230" width="260" height="160" rx="22" fill="#ffffff" stroke="#f3b7c0" />
  <rect x="470" y="265" width="140" height="24" rx="12" fill="#fce9ec" />
  <rect x="470" y="300" width="170" height="14" rx="7" fill="#e2e8f0" />
  <rect x="470" y="320" width="120" height="14" rx="7" fill="#e2e8f0" />

  <circle cx="355" cy="215" r="28" fill="#f3b7c0" />
  <rect x="320" y="240" width="90" height="70" rx="16" fill="#fdecee" stroke="#f3b7c0" />
  <path d="M365 250c0 0 18 26 18 38a18 18 0 1 1-36 0c0-12 18-38 18-38z" fill="#b3122b" />

  <circle cx="610" cy="210" r="34" fill="#f3b7c0" />
  <rect x="565" y="240" width="110" height="90" rx="18" fill="#fdecee" stroke="#f3b7c0" />
  <path d="M620 250c0 0 22 32 22 46a22 22 0 1 1-44 0c0-14 22-46 22-46z" fill="#b3122b" />

  <rect x="250" y="350" width="260" height="10" rx="5" fill="#e2e8f0" />
  <rect x="320" y="365" width="140" height="10" rx="5" fill="#e2e8f0" />
</svg>
